<svg width="450" height="300" xmlns="http://www.w3.org/2000/svg">

 <g>
  <title>Layer 1</title>
  <path id="svg_44" fill=" rgb(51, 51, 51)"/>
  <g>
   <g transform="matrix(1 0 0 1 -34.3577 -3.0252)">
    <title>Layer 1</title>
    <path fill=" rgb(51, 51, 51)" id="svg_98"/>
    <g id="svg_52">
     <g transform="matrix(1.24925 0 0 1.24925 -62.3133 -64.5984)" id="svg_95">
      <rect x="87.18527" y="198.79954" width="340.612" height="59.339" rx="8.472" ry="8.472" stroke-opacity="0" id="svg_97"/>
      <rect x="89.50827" y="68.54354" width="335.966" height="211.318" rx="11.283" ry="11.283" stroke-opacity="0" id="svg_96"/>
     </g>
     <path fill=" rgb(252, 237, 216)" d="m81.2224,43.46578l356.234,0c4.281,0 7.754,3.472 7.754,7.753l0,48.973l-371.741,0l0,-48.973c0,-4.281 3.472,-7.753 7.753,-7.753z" stroke-opacity="0" id="svg_94"/>
     <path fill=" rgb(233, 128, 45)" d="m73.4694,99.21878l371.741,0l0,91.416l-371.741,0l0,-91.416z" stroke-opacity="0" id="svg_93"/>
     <path fill=" rgb(197, 83, 44)" d="m445.2294,208.18178c0,4.07 -3.473,7.371 -7.754,7.371l-356.234,0c-4.281,0 -7.753,-3.301 -7.753,-7.371l0,-18.168l371.741,0l0,18.168z" stroke-opacity="0" id="svg_92"/>
     <rect x="132.4954" y="107.54078" width="253.726" height="70.127" rx="7.519" ry="7.519" stroke-opacity="0" id="svg_91"/>
     <rect fill=" rgb(255, 255, 255)" x="215.3584" y="120.50978" width="88.014" height="44.114" stroke-opacity="0" id="svg_90"/>
     <g transform="matrix(1.24925 0 0 1.24925 -62.3133 -64.5984)" id="svg_81">
      <ellipse fill=" rgb(255, 255, 255)" cx="-100.34827" cy="79.24153" rx="5.31" ry="5.31" transform="matrix(-1 0 0 1 0 0)" stroke-opacity="0" id="svg_89"/>
      <rect x="144.94891" y="203.25935" width="2.137" height="12.373" transform="matrix(-0.642788 -0.766044 0.766044 -0.642788 33.6732 325.673)" stroke-opacity="0" id="svg_88"/>
      <ellipse fill=" rgb(255, 255, 255)" cx="-414.49627" cy="79.30853" rx="5.31" ry="5.31" transform="matrix(-1 0 0 1 0 0)" stroke-opacity="0" id="svg_87"/>
      <rect x="20.28972" y="175.29332" width="2.137" height="12.373" transform="matrix(-0.438371 0.898794 -0.898794 -0.438371 586.883 139.614)" stroke-opacity="0" id="svg_86"/>
      <ellipse fill=" rgb(255, 255, 255)" cx="-100.28827" cy="269.26153" rx="5.31" ry="5.31" transform="matrix(-1 0 0 1 0 0)" stroke-opacity="0" id="svg_85"/>
      <rect x="25.31357" y="186.13817" width="2.137" height="12.373" transform="matrix(-0.573577 0.819152 -0.819152 -0.573577 272.875 357.91)" stroke-opacity="0" id="svg_84"/>
      <ellipse fill=" rgb(255, 255, 255)" cx="-414.44227" cy="269.54953" rx="5.31" ry="5.31" transform="matrix(-1 0 0 1 0 0)" stroke-opacity="0" id="svg_83"/>
      <rect x="49.82091" y="85.17895" width="2.137" height="12.373" transform="matrix(0.777146 0.629321 -0.629321 0.777146 432.303 166.466)" stroke-opacity="0" id="svg_82"/>
     </g>
     <g transform="matrix(1.24925 0 0 1.24925 -62.3133 -64.5984)" id="svg_64">
      <ellipse fill=" rgb(255, 255, 255)" cx="188.78127" cy="166.06753" rx="18.847" ry="18.847" stroke-opacity="0" id="svg_80"/>
      <ellipse cx="188.85227" cy="165.99853" rx="15.796" ry="15.796" stroke-opacity="0" id="svg_79"/>
      <rect fill=" rgb(255, 255, 255)" x="171.38927" y="164.18553" width="6.19" height="5.217" stroke-opacity="0" id="svg_78"/>
      <rect fill=" rgb(255, 255, 255)" x="199.95227" y="162.94653" width="6.19" height="5.217" stroke-opacity="0" id="svg_77"/>
      <rect fill=" rgb(255, 255, 255)" x="254.23779" y="196.00224" width="6.19" height="5.217" transform="matrix(0.499983 -0.866035 0.866035 0.499983 -104.76 277.049)" stroke-opacity="0" id="svg_76"/>
      <rect fill=" rgb(255, 255, 255)" x="109.00046" y="182.88393" width="6.19" height="5.217" transform="matrix(0.499968 0.866044 -0.866044 0.499968 285.877 -35.8454)" stroke-opacity="0" id="svg_75"/>
      <rect fill=" rgb(255, 255, 255)" x="123.57341" y="206.74579" width="6.19" height="5.217" transform="matrix(0.499928 0.866067 -0.866067 0.499928 314.416 -35.957)" stroke-opacity="0" id="svg_74"/>
      <rect fill=" rgb(255, 255, 255)" x="241.00708" y="220.14649" width="6.19" height="5.217" transform="matrix(0.50003 -0.866008 0.866008 0.50003 -133.073 278.486)" stroke-opacity="0" id="svg_73"/>
      <ellipse fill=" rgb(255, 255, 255)" cx="326.89427" cy="165.94053" rx="18.847" ry="18.847" stroke-opacity="0" id="svg_72"/>
      <ellipse cx="326.96527" cy="165.87153" rx="15.796" ry="15.796" stroke-opacity="0" id="svg_71"/>
      <rect fill=" rgb(255, 255, 255)" x="309.50227" y="164.05853" width="6.19" height="5.217" stroke-opacity="0" id="svg_70"/>
      <rect fill=" rgb(255, 255, 255)" x="338.06527" y="162.81953" width="6.19" height="5.217" stroke-opacity="0" id="svg_69"/>
      <rect fill=" rgb(255, 255, 255)" x="109.00046" y="182.88393" width="6.19" height="5.217" transform="matrix(0.499968 0.866044 -0.866044 0.499968 423.99 -35.9727)" stroke-opacity="0" id="svg_68"/>
      <rect fill=" rgb(255, 255, 255)" x="254.23779" y="196.00224" width="6.19" height="5.217" transform="matrix(0.499983 -0.866035 0.866035 0.499983 33.3528 276.921)" stroke-opacity="0" id="svg_67"/>
      <rect fill=" rgb(255, 255, 255)" x="123.57341" y="206.74579" width="6.19" height="5.217" transform="matrix(0.499928 0.866067 -0.866067 0.499928 452.529 -36.0843)" stroke-opacity="0" id="svg_66"/>
      <rect fill=" rgb(255, 255, 255)" x="241.00708" y="220.14649" width="6.19" height="5.217" transform="matrix(0.50003 -0.866008 0.866008 0.50003 5.03967 278.359)" stroke-opacity="0" id="svg_65"/>
     </g>
     <path fill=" rgb(117, 78, 46)" d="m291.2274,143.24878c0,-8.081 1.697,-15.765 4.753,-22.716l7.385,0l0,44.114l-7.944,0c-2.704,-6.6 -4.194,-13.825 -4.194,-21.398z" id="svg_63"/>
     <ellipse fill=" rgb(255, 255, 255)" cx="159.6764" cy="269.42178" rx="9.709" ry="9.709" stroke-opacity="0" id="svg_62"/>
     <ellipse fill=" rgb(255, 255, 255)" cx="359.5744" cy="269.42478" rx="9.709" ry="9.709" stroke-opacity="0" id="svg_61"/>
     <rect fill=" rgb(255, 255, 255)" x="194.1194" y="252.78278" width="16.841" height="16.841" rx="3.247" ry="3.247" stroke-opacity="0" id="svg_60"/>
     <rect fill=" rgb(255, 255, 255)" x="308.0484" y="252.84478" width="16.841" height="16.841" rx="3.247" ry="3.247" stroke-opacity="0" id="svg_59"/>
     <ellipse fill=" rgb(255, 255, 255)" cx="259.5484" cy="243.91578" rx="6.164" ry="6.164" stroke-opacity="0" id="svg_58"/>
     <rect x="248.97824" y="479.39995" width="15.887" height="2.344" transform="matrix(-0.866025 0.5 -0.5 -0.866025 722.145 531.685)" stroke-opacity="0" id="svg_57"/>
     <path stroke-linecap=" square" stroke-linejoin=" bevel" stroke-width=" 2px" fill=" none" d="m116.74639,284.46779l17.823,-56.533l250.601,0.587l16.841,55.78"/>
     <path fill=" rgb(255, 255, 255)" d="m116.10039,285.01879l17.515,-57.372l0.221,-0.714l0.735,0.002l250.601,0.598l0.741,0.002l0.214,0.721l17.066,56.765l-1.948,-0.002l-16.818,-55.451l-249.125,-0.594l-17.322,56.045l-1.88,0z"/>
     <path fill=" rgb(51, 51, 51)" d="m100.14171,79.61049l0,5.5826l-11.13348,0l0,-5.5826l2.50583,0l4.34555,-14.06751l-3.31467,0l0,-5.5826l15.71691,0l5.63018,19.65011l2.48996,0l0,5.5826l-14.19439,0l0,-5.5826l2.06175,0l-0.68197,-2.69614l-5.72534,0l-0.71369,2.69614l3.01334,0l0.00002,0zm2.66442,-6.53418l-1.83971,-7.72364l-2.31552,7.72364l4.15523,0z" id="svg_56"/>
     <rect fill=" rgb(87, 87, 87)" x="130.6854" y="65.73778" width="298.223" height="1.594" stroke-opacity="0" id="svg_55"/>
     <rect fill=" rgb(87, 87, 87)" x="130.6854" y="82.85378" width="298.223" height="1.594" stroke-opacity="0" id="svg_54"/>
     <path fill=" rgb(117, 78, 46)" d="m262.3184,141.49778c0,7.991 -1.029,15.741 -2.961,23.126l-43.999,0l0,-44.114l44.53,0c1.589,6.738 2.43,13.765 2.43,20.988z" id="svg_53"/>
    </g>
   </g>
  </g>
 </g>
</svg>