<svg width="48" height="48" xmlns="http://www.w3.org/2000/svg">
 <g>
  <title>Layer 1</title>
  <rect id="svg_8" height="10.11236" width="36.40449" y="13.4382" x="5.57303" fill="#FFB27C"/>
  <rect stroke="null" id="svg_6" height="17.97753" width="36.85393" y="24.22472" x="5.57303" fill="#894F3F"/>
  <path fill="#000000" d="m14.3,12l26.7,0q1.2,0 2.1,0.9q0.9,0.9 0.9,2.1l0,26q0,1.2 -0.9,2.1q-0.9,0.9 -2.1,0.9l-34,0q-1.2,0 -2.1,-0.9q-0.9,-0.9 -0.9,-2.1l0,-25.55q0,-1.1 0.75,-1.925q0.75,-0.825 1.75,-1.225l24.8,-10l0.95,2.5l-17.95,7.2zm-7.3,13.5l0,15.5q0,0 0,0q0,0 0,0l34,0q0,0 0,0q0,0 0,0l0,-15.5l-34,0zm0,-3l26,0l0,-3l3,0l0,3l5,0l0,-7.5q0,0 0,0q0,0 0,0l-34,0q0,0 0,0q0,0 0,0l0,7.5zm8.95,15.35q2.05,0 3.45,-1.4q1.4,-1.4 1.4,-3.45q0,-2.05 -1.4,-3.45q-1.4,-1.4 -3.45,-1.4q-2.05,0 -3.45,1.4q-1.4,1.4 -1.4,3.45q0,2.05 1.4,3.45q1.4,1.4 3.45,1.4zm-8.95,-12.35l0,15.5q0,0 0,0q0,0 0,0q0,0 0,0q0,0 0,0l0,-15.5z" id="svg_1"/>
 </g>

</svg>