<svg width="450" height="300" xmlns="http://www.w3.org/2000/svg">
 <g id="Layer_1">
  <title>Layer 1</title>
  <g>
   <defs>
    <path fill=" none" d="m153.453,154.926c13.685,0 21.607,0 29.53,0c16.436,0 28.567,3.602 41.055,3.602c9.419,0 16.101,2.16 22.327,2.16c7.382,0.721 12.321,1.441 16.566,1.441l3.601,0.72c3.339,0 6.657,0.72 10.084,0.72" id="svg_48"/>
   </defs>
   <g transform="matrix(1 0 0 1 -34.3577 -3.0252)">
    <title>Layer 1</title>
    <path fill=" rgb(51, 51, 51)" id="svg_47"/>
    <g id="svg_1">
     <g transform="matrix(1.24925 0 0 1.24925 -62.3133 -64.5984)" id="svg_44">
      <rect x="87.18527" y="198.79962" width="340.612" height="59.339" rx="8.472" ry="8.472" stroke-opacity="0" id="svg_46"/>
      <rect x="89.50822" y="68.54346" width="335.966" height="211.318" rx="11.283" ry="11.283" stroke-opacity="0" id="svg_45"/>
     </g>
     <g>
      <path fill=" rgb(252, 237, 216)" d="m81.22239,43.46589l356.234,0c4.281,0 7.754,3.472 7.754,7.753l0,48.973l-371.741,0l0,-48.973c0,-4.281 3.472,-7.753 7.753,-7.753l0,0z" stroke-opacity="0" id="svg_43"/>
      <path fill=" rgb(233, 128, 45)" d="m73.46939,99.21889l371.741,0l0,91.416l-371.741,0l0,-91.416l0,0z" stroke-opacity="0" id="svg_42"/>
      <path fill=" rgb(197, 83, 44)" d="m445.22939,208.18189c0,4.07 -3.473,7.371 -7.754,7.371l-356.234,0c-4.281,0 -7.753,-3.301 -7.753,-7.371l0,-18.168l371.741,0l0,18.168z" stroke-opacity="0" id="svg_41"/>
     </g>
     <rect x="132.49539" y="107.54089" width="253.726" height="70.127" rx="7.519" ry="7.519" stroke-opacity="0" id="svg_40"/>
     <g>
      <rect fill=" rgb(255, 255, 255)" x="215.35839" y="120.50989" width="88.014" height="44.114" stroke-opacity="0" id="svg_39"/>
      <path fill=" rgb(117, 78, 46)" d="m291.22739,143.24889c0,-8.081 1.697,-15.765 4.753,-22.716l7.385,0l0,44.114l-7.944,0c-2.704,-6.6 -4.194,-13.825 -4.194,-21.398z" id="svg_38"/>
      <path fill=" rgb(117, 78, 46)" d="m262.31839,141.49789c0,7.991 -1.029,15.741 -2.961,23.126l-43.999,0l0,-44.114l44.53,0c1.589,6.738 2.43,13.765 2.43,20.988z" id="svg_37"/>
     </g>
     <g transform="matrix(1.24925 0 0 1.24925 -62.3133 -64.5984)" id="svg_28">
      <ellipse fill=" rgb(255, 255, 255)" cx="-100.34827" cy="79.24161" rx="5.31" ry="5.31" transform="matrix(-1 0 0 1 0 0)" stroke-opacity="0" id="svg_36"/>
      <rect x="144.94885" y="203.2593" width="2.137" height="12.373" transform="matrix(-0.642788 -0.766044 0.766044 -0.642788 33.6732 325.673)" stroke-opacity="0" id="svg_35"/>
      <ellipse fill=" rgb(255, 255, 255)" cx="-414.49627" cy="79.30861" rx="5.31" ry="5.31" transform="matrix(-1 0 0 1 0 0)" stroke-opacity="0" id="svg_34"/>
      <rect x="20.28979" y="175.29328" width="2.137" height="12.373" transform="matrix(-0.438371 0.898794 -0.898794 -0.438371 586.883 139.614)" stroke-opacity="0" id="svg_33"/>
      <ellipse fill=" rgb(255, 255, 255)" cx="-100.28827" cy="269.26161" rx="5.31" ry="5.31" transform="matrix(-1 0 0 1 0 0)" stroke-opacity="0" id="svg_32"/>
      <rect x="25.31364" y="186.13812" width="2.137" height="12.373" transform="matrix(-0.573577 0.819152 -0.819152 -0.573577 272.875 357.91)" stroke-opacity="0" id="svg_31"/>
      <ellipse fill=" rgb(255, 255, 255)" cx="-414.44227" cy="269.54961" rx="5.31" ry="5.31" transform="matrix(-1 0 0 1 0 0)" stroke-opacity="0" id="svg_30"/>
      <rect x="49.82096" y="85.17901" width="2.137" height="12.373" transform="matrix(0.777146 0.629321 -0.629321 0.777146 432.303 166.466)" stroke-opacity="0" id="svg_29"/>
     </g>
     <g transform="matrix(1.24925 0 0 1.24925 -62.3133 -64.5984)" id="svg_11">
      <ellipse fill=" rgb(255, 255, 255)" cx="188.78127" cy="166.06761" rx="18.847" ry="18.847" stroke-opacity="0" id="svg_27"/>
      <ellipse cx="188.85227" cy="165.99861" rx="15.796" ry="15.796" stroke-opacity="0" id="svg_26"/>
      <rect fill=" rgb(255, 255, 255)" x="171.38927" y="164.18561" width="6.19" height="5.217" stroke-opacity="0" id="svg_25"/>
      <rect fill=" rgb(255, 255, 255)" x="199.95227" y="162.94661" width="6.19" height="5.217" stroke-opacity="0" id="svg_24"/>
      <rect fill=" rgb(255, 255, 255)" x="254.23772" y="196.00227" width="6.19" height="5.217" transform="matrix(0.499983 -0.866035 0.866035 0.499983 -104.76 277.049)" stroke-opacity="0" id="svg_23"/>
      <rect fill=" rgb(255, 255, 255)" x="109.00053" y="182.88397" width="6.19" height="5.217" transform="matrix(0.499968 0.866044 -0.866044 0.499968 285.877 -35.8454)" stroke-opacity="0" id="svg_22"/>
      <rect fill=" rgb(255, 255, 255)" x="123.57348" y="206.74583" width="6.19" height="5.217" transform="matrix(0.499928 0.866067 -0.866067 0.499928 314.416 -35.957)" stroke-opacity="0" id="svg_21"/>
      <rect fill=" rgb(255, 255, 255)" x="241.00701" y="220.14653" width="6.19" height="5.217" transform="matrix(0.50003 -0.866008 0.866008 0.50003 -133.073 278.486)" stroke-opacity="0" id="svg_20"/>
      <ellipse fill=" rgb(255, 255, 255)" cx="326.89427" cy="165.94061" rx="18.847" ry="18.847" stroke-opacity="0" id="svg_19"/>
      <ellipse cx="326.96527" cy="165.87161" rx="15.796" ry="15.796" stroke-opacity="0" id="svg_18"/>
      <rect fill=" rgb(255, 255, 255)" x="309.50227" y="164.05861" width="6.19" height="5.217" stroke-opacity="0" id="svg_17"/>
      <rect fill=" rgb(255, 255, 255)" x="338.06527" y="162.81961" width="6.19" height="5.217" stroke-opacity="0" id="svg_16"/>
      <rect fill=" rgb(255, 255, 255)" x="109.00053" y="182.88397" width="6.19" height="5.217" transform="matrix(0.499968 0.866044 -0.866044 0.499968 423.99 -35.9727)" stroke-opacity="0" id="svg_15"/>
      <rect fill=" rgb(255, 255, 255)" x="254.23772" y="196.00227" width="6.19" height="5.217" transform="matrix(0.499983 -0.866035 0.866035 0.499983 33.3528 276.921)" stroke-opacity="0" id="svg_14"/>
      <rect fill=" rgb(255, 255, 255)" x="123.57348" y="206.74583" width="6.19" height="5.217" transform="matrix(0.499928 0.866067 -0.866067 0.499928 452.529 -36.0843)" stroke-opacity="0" id="svg_13"/>
      <rect fill=" rgb(255, 255, 255)" x="241.00701" y="220.14653" width="6.19" height="5.217" transform="matrix(0.50003 -0.866008 0.866008 0.50003 5.03967 278.359)" stroke-opacity="0" id="svg_12"/>
     </g>
     <g>
      <ellipse fill=" rgb(255, 255, 255)" cx="159.67639" cy="269.42189" rx="9.709" ry="9.709" stroke-opacity="0" id="svg_10"/>
      <ellipse fill=" rgb(255, 255, 255)" cx="359.57439" cy="269.42489" rx="9.709" ry="9.709" stroke-opacity="0" id="svg_9"/>
      <rect fill=" rgb(255, 255, 255)" x="194.11939" y="252.78289" width="16.841" height="16.841" rx="3.247" ry="3.247" stroke-opacity="0" id="svg_8"/>
      <rect fill=" rgb(255, 255, 255)" x="308.04839" y="252.84489" width="16.841" height="16.841" rx="3.247" ry="3.247" stroke-opacity="0" id="svg_7"/>
      <ellipse fill=" rgb(255, 255, 255)" cx="259.54839" cy="243.91589" rx="6.164" ry="6.164" stroke-opacity="0" id="svg_6"/>
      <rect x="248.9787" y="479.3993" width="15.887" height="2.344" transform="matrix(-0.866025 0.5 -0.5 -0.866025 722.145 531.685)" stroke-opacity="0" id="svg_5"/>
      <path fill=" rgb(255, 255, 255)" d="m116.10039,285.01889l17.515,-57.372l0.221,-0.714l0.735,0.002l250.601,0.598l0.741,0.002l0.214,0.721l17.066,56.765l-1.948,-0.002l-16.818,-55.451l-249.125,-0.594l-17.322,56.045l-1.88,0z"/>
     </g>
     <g>
      <path fill=" rgb(51, 51, 51)" d="m100.14139,79.61089l0,5.582l-11.133,0l0,-5.582l2.506,0l4.345,-14.068l-3.314,0l0,-5.582l15.716,0l5.631,19.65l2.49,0l0,5.582l-14.195,0l0,-5.582l2.062,0l-0.682,-2.696l-5.725,0l-0.714,2.696l3.013,0l0,0zm2.665,-6.534l-1.84,-7.724l-2.315,7.724l4.155,0z" id="svg_4"/>
      <rect fill=" rgb(87, 87, 87)" x="130.68539" y="65.73789" width="298.223" height="1.594" stroke-opacity="0" id="svg_3"/>
      <rect fill=" rgb(87, 87, 87)" x="130.68539" y="82.85389" width="298.223" height="1.594" stroke-opacity="0" id="svg_2"/>
     </g>
     <path fill=" rgb(14, 37, 112)" transform="matrix(0.996719 -0.080936 0.080936 0.996719 -4.69866 18.7216)" d="m222.82992,88.3583l-0.65,-0.114c-0.331,-0.051 -0.668,-0.102 -1.012,-0.153c-0.344,-0.051 -0.694,-0.089 -1.051,-0.115c-0.357,0 -0.713,-0.101 -1.07,-0.305c-0.331,-0.179 -0.56,-0.459 -0.688,-0.841c-0.025,-0.127 -0.057,-0.254 -0.095,-0.382c-0.038,-0.127 -0.07,-0.255 -0.096,-0.382c0,-0.306 0.064,-0.535 0.191,-0.688c0.128,-0.127 0.236,-0.254 0.325,-0.382c0.089,-0.127 0.185,-0.242 0.287,-0.344c0.051,-0.051 0.102,-0.089 0.153,-0.114c0.051,-0.026 0.101,-0.051 0.152,-0.077c0.128,-0.076 0.255,-0.133 0.383,-0.172c0.127,-0.038 0.254,-0.07 0.382,-0.095c0.051,-0.026 0.095,-0.032 0.133,-0.019c0.039,0.013 0.07,0.019 0.096,0.019c0.127,0.025 0.267,0.045 0.42,0.057c0.153,0.013 0.293,0.045 0.42,0.096l1.605,0.229c0.357,0.051 0.675,0 0.955,-0.153c0.102,-0.051 0.198,-0.102 0.287,-0.153c0.089,-0.051 0.172,-0.102 0.248,-0.152c0.561,-0.332 1.044,-0.675 1.452,-1.032c0.306,-0.28 0.599,-0.56 0.879,-0.841c0.28,-0.28 0.535,-0.585 0.764,-0.917c0.178,-0.229 0.293,-0.464 0.344,-0.706c0.051,-0.242 0.063,-0.491 0.038,-0.745l-0.115,-0.306c-0.025,-0.127 -0.076,-0.229 -0.152,-0.306c-0.077,-0.076 -0.153,-0.165 -0.23,-0.267c-0.153,-0.128 -0.299,-0.268 -0.439,-0.421c-0.14,-0.152 -0.287,-0.28 -0.439,-0.382c-0.383,-0.305 -0.758,-0.598 -1.128,-0.878c-0.369,-0.281 -0.745,-0.561 -1.127,-0.841c-0.025,-0.051 -0.102,-0.102 -0.229,-0.153c-0.229,-0.153 -0.452,-0.324 -0.669,-0.516c-0.216,-0.191 -0.426,-0.375 -0.63,-0.554c-0.255,-0.254 -0.535,-0.496 -0.841,-0.725c-0.152,-0.077 -0.292,-0.204 -0.42,-0.383c-0.102,-0.127 -0.255,-0.254 -0.458,-0.382c-0.179,-0.101 -0.344,-0.222 -0.497,-0.363c-0.153,-0.14 -0.306,-0.273 -0.458,-0.401l-0.497,-0.458c-0.102,-0.128 -0.21,-0.249 -0.325,-0.363c-0.115,-0.115 -0.236,-0.236 -0.363,-0.363c-0.051,-0.128 -0.121,-0.229 -0.21,-0.306c-0.089,-0.076 -0.172,-0.165 -0.248,-0.267c-0.026,-0.051 -0.064,-0.109 -0.115,-0.172c-0.051,-0.064 -0.089,-0.134 -0.115,-0.21c-0.152,-0.306 -0.312,-0.612 -0.477,-0.917c-0.166,-0.306 -0.312,-0.624 -0.44,-0.955c-0.076,-0.204 -0.146,-0.402 -0.21,-0.593c-0.063,-0.191 -0.121,-0.375 -0.172,-0.554c-0.025,-0.203 -0.07,-0.388 -0.133,-0.554c-0.064,-0.165 -0.121,-0.337 -0.172,-0.515c-0.051,-0.281 -0.109,-0.554 -0.172,-0.822c-0.064,-0.267 -0.121,-0.528 -0.172,-0.783l-0.077,-0.306c-0.025,-0.28 -0.025,-0.547 0,-0.802c0.051,-0.357 0.128,-0.675 0.23,-0.955c0.102,-0.306 0.267,-0.548 0.496,-0.726c0.255,-0.204 0.51,-0.408 0.765,-0.612c0.254,-0.203 0.522,-0.369 0.802,-0.496c0.051,0 0.089,-0.013 0.114,-0.038c0.255,-0.204 0.535,-0.351 0.841,-0.44c0.306,-0.089 0.611,-0.172 0.917,-0.248c1.223,-0.357 2.483,-0.624 3.782,-0.803l0.383,0c0.254,0 0.496,0 0.725,0c0.23,0 0.472,-0.012 0.726,-0.038c0.306,0 0.612,0.032 0.917,0.096c0.306,0.063 0.599,0.159 0.879,0.286c0.204,0.102 0.408,0.21 0.611,0.325c0.204,0.115 0.395,0.236 0.574,0.363c0.203,0.153 0.331,0.318 0.382,0.497l0.114,0.267c0.128,0.229 0.198,0.465 0.21,0.707c0.013,0.242 -0.006,0.49 -0.057,0.745c0,0.076 -0.006,0.159 -0.019,0.248c-0.013,0.09 -0.019,0.172 -0.019,0.249c-0.077,0.56 -0.344,0.993 -0.802,1.299c-0.281,0.254 -0.65,0.356 -1.108,0.305c-0.102,-0.051 -0.153,-0.025 -0.153,0.077c0,0.102 -0.064,0.153 -0.191,0.153l-0.23,0c-0.152,0 -0.305,-0.077 -0.458,-0.23c-0.127,-0.127 -0.191,-0.229 -0.191,-0.305c0,-0.102 0.051,-0.179 0.153,-0.229c-0.051,-0.128 -0.102,-0.242 -0.153,-0.344c-0.051,-0.102 -0.102,-0.179 -0.153,-0.23c-0.076,-0.127 -0.191,-0.216 -0.344,-0.267c-0.127,-0.026 -0.254,-0.051 -0.382,-0.076c-0.127,-0.026 -0.255,-0.051 -0.382,-0.077c-0.102,0 -0.216,-0.006 -0.344,-0.019c-0.127,-0.013 -0.254,-0.032 -0.382,-0.057c-0.076,-0.026 -0.191,-0.013 -0.344,0.038c-0.076,0.025 -0.153,0.045 -0.229,0.057c-0.076,0.013 -0.166,0.007 -0.267,-0.019c-0.077,0 -0.16,0 -0.249,0c-0.089,0 -0.184,0.026 -0.286,0.077l-0.726,0.114c-0.408,0.077 -0.803,0.229 -1.185,0.459c-0.076,0.025 -0.152,0.051 -0.229,0.076c-0.076,0.026 -0.153,0.026 -0.229,0c-0.153,-0.025 -0.28,0.013 -0.382,0.115c-0.026,0.051 -0.083,0.082 -0.172,0.095c-0.089,0.013 -0.159,0.045 -0.21,0.096c-0.102,0.102 -0.153,0.203 -0.153,0.305c0.025,0.051 0.038,0.128 0.038,0.23l0.802,2.33c0.153,0.408 0.351,0.783 0.593,1.127c0.242,0.344 0.503,0.682 0.783,1.013c0.433,0.509 0.879,0.942 1.337,1.299l1.223,1.031c0.254,0.23 0.522,0.446 0.802,0.65c0.28,0.204 0.548,0.408 0.802,0.611c0.383,0.28 0.765,0.567 1.147,0.86c0.382,0.293 0.764,0.592 1.146,0.898c0.306,0.255 0.605,0.503 0.898,0.745c0.293,0.242 0.566,0.503 0.821,0.783c0.179,0.204 0.357,0.408 0.535,0.611c0.178,0.204 0.331,0.433 0.459,0.688c0.178,0.28 0.331,0.611 0.458,0.994c0.153,0.483 0.217,0.942 0.191,1.375c-0.025,0.051 -0.038,0.127 -0.038,0.229c0,0.306 -0.032,0.592 -0.096,0.86c-0.063,0.267 -0.159,0.541 -0.286,0.821c-0.128,0.255 -0.261,0.516 -0.401,0.784c-0.14,0.267 -0.3,0.528 -0.478,0.783c-0.255,0.331 -0.516,0.643 -0.783,0.936c-0.268,0.293 -0.567,0.579 -0.898,0.86c-0.178,0.152 -0.357,0.312 -0.535,0.477c-0.178,0.166 -0.369,0.312 -0.573,0.44c-0.127,0.101 -0.255,0.197 -0.382,0.286c-0.127,0.089 -0.255,0.185 -0.382,0.287c-0.102,0.051 -0.204,0.114 -0.306,0.191c-0.102,0.076 -0.204,0.152 -0.305,0.229c-0.102,0.102 -0.223,0.185 -0.363,0.248c-0.141,0.064 -0.274,0.121 -0.402,0.172l-1.108,0.459c-0.229,0.076 -0.458,0.127 -0.687,0.152c-0.23,0.026 -0.472,0.026 -0.726,0zm31.997,-1.49c-0.153,-0.025 -0.306,-0.038 -0.458,-0.038c-0.153,0 -0.293,-0.038 -0.421,-0.114c-0.204,-0.077 -0.369,-0.166 -0.496,-0.268c-0.255,-0.229 -0.484,-0.497 -0.688,-0.802c-0.026,-0.051 -0.051,-0.115 -0.077,-0.191c-0.025,-0.077 -0.063,-0.14 -0.114,-0.191c-0.102,-0.23 -0.204,-0.459 -0.306,-0.688c-0.102,-0.229 -0.216,-0.458 -0.344,-0.688c-0.127,-0.229 -0.254,-0.458 -0.382,-0.687c-0.127,-0.23 -0.254,-0.459 -0.382,-0.688c-0.127,-0.229 -0.255,-0.459 -0.382,-0.688c-0.127,-0.229 -0.242,-0.471 -0.344,-0.726l-0.229,-0.382c-0.102,-0.178 -0.204,-0.357 -0.306,-0.535c-0.102,-0.178 -0.178,-0.356 -0.229,-0.535c-0.025,-0.076 -0.089,-0.191 -0.191,-0.344l-0.344,-0.573c-0.076,-0.178 -0.159,-0.356 -0.248,-0.535c-0.089,-0.178 -0.198,-0.343 -0.325,-0.496l-0.229,-0.344c-0.408,-0.662 -0.79,-1.35 -1.146,-2.063c-0.077,-0.153 -0.16,-0.306 -0.249,-0.459c-0.089,-0.153 -0.184,-0.305 -0.286,-0.458c-0.026,-0.102 -0.07,-0.191 -0.134,-0.268c-0.064,-0.076 -0.121,-0.153 -0.172,-0.229c-0.051,-0.076 -0.115,-0.076 -0.191,0c-0.025,0.076 -0.051,0.146 -0.076,0.21c-0.026,0.064 -0.051,0.134 -0.077,0.21c-0.102,0.28 -0.191,0.561 -0.267,0.841c-0.077,0.28 -0.153,0.56 -0.229,0.84c-0.051,0.255 -0.115,0.497 -0.192,0.726c-0.076,0.23 -0.14,0.459 -0.191,0.688c-0.025,0.178 -0.05,0.35 -0.076,0.516c-0.025,0.165 -0.064,0.325 -0.115,0.477c0,0.077 -0.006,0.147 -0.019,0.211c-0.012,0.063 -0.032,0.133 -0.057,0.21c-0.102,0.382 -0.172,0.77 -0.21,1.165c-0.038,0.395 -0.083,0.796 -0.134,1.204l0,0.229c0.026,0.102 0.032,0.191 0.019,0.267c-0.012,0.077 -0.032,0.153 -0.057,0.23c-0.076,0.203 -0.089,0.433 -0.038,0.687c0.025,0.102 0.044,0.204 0.057,0.306c0.013,0.102 0.006,0.204 -0.019,0.306c-0.026,0.254 -0.045,0.503 -0.057,0.745c-0.013,0.242 -0.019,0.477 -0.019,0.706c0,0.23 -0.039,0.459 -0.115,0.688c-0.051,0.102 -0.115,0.166 -0.191,0.191c-0.102,0.102 -0.166,0.191 -0.191,0.268c-0.026,0.102 -0.083,0.178 -0.172,0.229c-0.089,0.051 -0.159,0.102 -0.21,0.153c-0.026,0.025 -0.064,0.038 -0.115,0.038c-0.076,0 -0.127,0.013 -0.153,0.038c-0.076,0.026 -0.146,0.051 -0.21,0.077c-0.064,0.025 -0.121,0.05 -0.172,0.076c-0.076,0 -0.159,-0.006 -0.248,-0.019c-0.089,-0.013 -0.172,-0.019 -0.248,-0.019c-0.281,-0.026 -0.484,-0.064 -0.612,-0.115c-0.127,-0.051 -0.305,-0.216 -0.535,-0.497c-0.025,-0.076 -0.063,-0.146 -0.114,-0.21c-0.051,-0.063 -0.102,-0.133 -0.153,-0.21c-0.178,-0.229 -0.293,-0.484 -0.344,-0.764c-0.025,-0.357 -0.096,-0.713 -0.21,-1.07c-0.115,-0.356 -0.248,-0.7 -0.401,-1.031c-0.026,-0.102 -0.058,-0.204 -0.096,-0.306c-0.038,-0.102 -0.083,-0.191 -0.134,-0.267c-0.178,-0.408 -0.35,-0.809 -0.515,-1.204c-0.166,-0.395 -0.338,-0.796 -0.516,-1.204c-0.026,-0.025 -0.038,-0.05 -0.038,-0.076c0,-0.025 -0.013,-0.051 -0.039,-0.076c-0.152,-0.23 -0.286,-0.465 -0.401,-0.707c-0.114,-0.242 -0.235,-0.491 -0.363,-0.745c-0.127,-0.28 -0.293,-0.573 -0.496,-0.879c-0.051,-0.127 -0.109,-0.242 -0.172,-0.344c-0.064,-0.102 -0.121,-0.204 -0.172,-0.306c-0.026,-0.05 -0.045,-0.114 -0.058,-0.191c-0.012,-0.076 -0.044,-0.14 -0.095,-0.191c-0.204,-0.28 -0.376,-0.585 -0.516,-0.917c-0.14,-0.331 -0.299,-0.649 -0.477,-0.955l-0.421,-0.687c-0.076,-0.128 -0.159,-0.255 -0.248,-0.383c-0.089,-0.127 -0.172,-0.241 -0.248,-0.343c-0.077,-0.128 -0.153,-0.236 -0.23,-0.325c-0.076,-0.089 -0.14,-0.185 -0.191,-0.287c-0.102,-0.153 -0.203,-0.299 -0.305,-0.439c-0.102,-0.14 -0.191,-0.274 -0.268,-0.401c-0.102,-0.153 -0.204,-0.3 -0.305,-0.44c-0.102,-0.14 -0.204,-0.273 -0.306,-0.401c-0.178,-0.28 -0.319,-0.547 -0.42,-0.802c-0.026,-0.128 -0.026,-0.242 0,-0.344c0.051,-0.204 0.095,-0.401 0.133,-0.592c0.039,-0.191 0.083,-0.376 0.134,-0.554l0.115,-0.153c0.102,-0.102 0.197,-0.191 0.286,-0.268c0.089,-0.076 0.185,-0.152 0.287,-0.229c0.102,-0.051 0.165,-0.076 0.191,-0.076c0.28,-0.102 0.547,-0.153 0.802,-0.153c0.255,0 0.51,0.064 0.764,0.191c0.128,0.051 0.255,0.115 0.382,0.191c0.281,0.153 0.459,0.357 0.535,0.611c0.051,0.128 0.109,0.255 0.172,0.382c0.064,0.128 0.108,0.255 0.134,0.383c0.204,0.534 0.484,1.044 0.84,1.528c0.204,0.28 0.421,0.598 0.65,0.955c0.051,0.025 0.089,0.064 0.115,0.115c0.025,0.051 0.051,0.089 0.076,0.114c0.153,0.179 0.293,0.382 0.42,0.612c0.128,0.229 0.242,0.445 0.344,0.649c0.102,0.178 0.185,0.35 0.249,0.516c0.063,0.165 0.133,0.337 0.21,0.516c0.203,0.458 0.394,0.917 0.573,1.375c0.178,0.459 0.356,0.904 0.535,1.337c0.051,0.153 0.114,0.293 0.191,0.421c0.076,0.127 0.14,0.267 0.191,0.42c0,0 0.006,0.006 0.019,0.019c0.013,0.013 0.019,0.006 0.019,-0.019c0.051,0 0.076,-0.013 0.076,-0.038c0.128,-0.204 0.204,-0.395 0.23,-0.573l0.343,-1.223c0.051,-0.153 0.102,-0.306 0.153,-0.459c0.051,-0.152 0.102,-0.318 0.153,-0.496c0.153,-0.357 0.268,-0.713 0.344,-1.07c0.025,-0.204 0.102,-0.42 0.229,-0.65c0.077,-0.127 0.115,-0.267 0.115,-0.42l0.114,-0.382c0.153,-0.458 0.306,-0.917 0.459,-1.375c0.153,-0.459 0.331,-0.892 0.535,-1.299c0.076,-0.153 0.153,-0.3 0.229,-0.44c0.077,-0.14 0.153,-0.274 0.229,-0.401c0.051,-0.102 0.115,-0.191 0.191,-0.267c0.077,-0.077 0.166,-0.128 0.268,-0.153c0.102,-0.128 0.216,-0.204 0.344,-0.229c0.127,-0.026 0.242,-0.077 0.344,-0.153c0.025,-0.026 0.089,-0.038 0.191,-0.038c0.076,0 0.165,0.025 0.267,0.076c0.127,0.051 0.242,0.038 0.344,-0.038c0.127,-0.102 0.242,-0.077 0.344,0.076c0.051,0.102 0.121,0.185 0.21,0.248c0.089,0.064 0.172,0.121 0.248,0.172c0.051,0.051 0.108,0.102 0.172,0.153c0.064,0.051 0.108,0.115 0.134,0.191l1.261,2.178c0.127,0.204 0.254,0.414 0.382,0.631c0.127,0.216 0.242,0.439 0.344,0.668c0.102,0.127 0.184,0.268 0.248,0.42c0.064,0.153 0.134,0.319 0.21,0.497c0.153,0.408 0.369,0.815 0.65,1.223c0.051,0.076 0.102,0.153 0.153,0.229c0.05,0.076 0.089,0.153 0.114,0.229c0.127,0.306 0.274,0.612 0.44,0.917c0.165,0.306 0.324,0.624 0.477,0.955c0.026,0.051 0.057,0.115 0.096,0.191c0.038,0.077 0.07,0.14 0.095,0.191c0.127,0.332 0.28,0.656 0.459,0.975c0.178,0.318 0.356,0.63 0.535,0.936c0.025,0.051 0.089,0.127 0.191,0.229c0,0 0.012,0 0.038,0c0.025,0 0.038,-0.013 0.038,-0.038c0.025,-0.026 0.064,-0.089 0.115,-0.191c0.076,-0.229 0.152,-0.452 0.229,-0.669c0.076,-0.216 0.127,-0.439 0.153,-0.668c0.051,-0.204 0.102,-0.37 0.152,-0.497c0.128,-0.408 0.242,-0.809 0.344,-1.204c0.102,-0.394 0.204,-0.796 0.306,-1.203c0.051,-0.153 0.102,-0.312 0.153,-0.478c0.051,-0.165 0.102,-0.325 0.153,-0.477c0.152,-0.535 0.305,-1.064 0.458,-1.586c0.153,-0.522 0.293,-1.051 0.42,-1.586l0.459,-1.91c0.051,-0.153 0.051,-0.306 0,-0.458c-0.051,-0.128 -0.038,-0.23 0.038,-0.306c0.102,-0.127 0.178,-0.268 0.229,-0.42c0.051,-0.153 0.102,-0.293 0.153,-0.421c0.077,-0.254 0.178,-0.535 0.306,-0.84c0.025,-0.077 0.064,-0.153 0.114,-0.229c0.051,-0.077 0.09,-0.153 0.115,-0.23c0.102,-0.152 0.217,-0.242 0.344,-0.267c0.076,-0.051 0.153,-0.096 0.229,-0.134c0.077,-0.038 0.153,-0.07 0.229,-0.095c0.026,-0.026 0.058,-0.039 0.096,-0.039c0.038,0 0.07,-0.012 0.095,-0.038c0.128,-0.051 0.262,-0.083 0.402,-0.095c0.14,-0.013 0.261,-0.058 0.363,-0.134c0.152,-0.102 0.331,-0.089 0.534,0.038c0.204,0.153 0.37,0.293 0.497,0.42c0.153,0.153 0.255,0.383 0.306,0.688c0.025,0.077 0.038,0.153 0.038,0.229c0,0.077 0,0.153 0,0.23c-0.051,0.56 -0.166,1.108 -0.344,1.643c-0.051,0.152 -0.102,0.312 -0.153,0.477c-0.051,0.166 -0.102,0.325 -0.152,0.478c0,0.025 -0.007,0.057 -0.02,0.095c-0.012,0.038 -0.019,0.083 -0.019,0.134c-0.025,0.408 -0.089,0.815 -0.191,1.223c-0.102,0.407 -0.216,0.802 -0.344,1.184c-0.101,0.331 -0.191,0.662 -0.267,0.993c-0.076,0.332 -0.166,0.663 -0.267,0.994c-0.026,0.051 -0.045,0.121 -0.058,0.21c-0.013,0.089 -0.044,0.159 -0.095,0.21c-0.077,0.153 -0.128,0.312 -0.153,0.478c-0.026,0.165 -0.064,0.337 -0.115,0.515c-0.025,0.102 -0.044,0.198 -0.057,0.287c-0.013,0.089 -0.045,0.185 -0.096,0.287c-0.076,0.28 -0.152,0.566 -0.229,0.859c-0.076,0.293 -0.14,0.58 -0.191,0.86l-0.344,1.299c-0.025,0.102 -0.044,0.197 -0.057,0.287c-0.013,0.089 -0.032,0.184 -0.057,0.286c0,0.076 -0.007,0.153 -0.019,0.229c-0.013,0.077 -0.032,0.166 -0.058,0.268c-0.025,0.153 -0.057,0.312 -0.095,0.477c-0.038,0.166 -0.07,0.338 -0.096,0.516c-0.025,0.178 -0.051,0.35 -0.076,0.516c-0.026,0.165 -0.051,0.35 -0.077,0.554c0,0.102 -0.006,0.204 -0.019,0.306c-0.012,0.101 -0.019,0.216 -0.019,0.343l-0.114,0.803c0,0.255 -0.013,0.496 -0.039,0.726c-0.025,0.229 -0.063,0.471 -0.114,0.726c-0.026,0.051 -0.038,0.114 -0.038,0.191c0,0.076 0,0.14 0,0.191c0,0.229 -0.051,0.407 -0.153,0.535c-0.026,0.076 -0.064,0.152 -0.115,0.229c-0.051,0.076 -0.102,0.153 -0.153,0.229l-0.191,0.191c-0.076,0.026 -0.153,0.07 -0.229,0.134c-0.076,0.064 -0.153,0.121 -0.229,0.172c-0.153,0.076 -0.319,0.114 -0.497,0.114zm12.258,1.285c-0.486,-0.01 -0.859,-0.211 -1.118,-0.603c-0.132,-0.171 -0.251,-0.352 -0.355,-0.545c-0.104,-0.193 -0.181,-0.395 -0.232,-0.607c-0.081,-0.37 -0.15,-0.744 -0.205,-1.123c-0.055,-0.379 -0.098,-0.751 -0.129,-1.114c-0.041,-0.287 -0.046,-0.558 -0.014,-0.81c0.01,-0.281 0.012,-0.557 0.008,-0.827c-0.005,-0.27 0.01,-0.544 0.045,-0.822c0.019,-0.152 0.039,-0.31 0.06,-0.474c0.021,-0.165 0.028,-0.324 0.022,-0.479c-0.013,-0.104 -0.014,-0.194 -0.005,-0.27c0.01,-0.076 0.021,-0.164 0.033,-0.265c0.045,-0.354 0.09,-0.714 0.136,-1.081c0.046,-0.366 0.079,-0.728 0.098,-1.085c0.026,-0.202 0.036,-0.387 0.031,-0.554c-0.004,-0.168 -0.033,-0.345 -0.087,-0.531c-0.066,-0.291 -0.04,-0.596 0.077,-0.915c0.009,-0.076 0.028,-0.125 0.057,-0.147c0.072,-0.17 0.126,-0.343 0.161,-0.518c0.035,-0.176 0.051,-0.353 0.048,-0.534c-0.009,-0.129 -0.006,-0.257 0.01,-0.383c0.016,-0.127 0.03,-0.241 0.043,-0.342c0.009,-0.281 0.039,-0.566 0.088,-0.855c0.049,-0.289 0.104,-0.571 0.164,-0.846c0.035,-0.072 0.057,-0.147 0.067,-0.222c0.009,-0.076 0.019,-0.152 0.028,-0.228c0.01,-0.281 0.049,-0.546 0.119,-0.794c0.07,-0.248 0.133,-0.496 0.19,-0.746c0.089,-0.297 0.177,-0.587 0.264,-0.872c0.087,-0.284 0.188,-0.573 0.301,-0.867c0.067,-0.12 0.11,-0.255 0.129,-0.407c0.019,-0.152 0.038,-0.303 0.057,-0.455c0.016,-0.126 0.025,-0.253 0.029,-0.381c0.003,-0.128 0.011,-0.243 0.024,-0.344c0.009,-0.076 0.019,-0.152 0.028,-0.227c0.01,-0.076 0.032,-0.15 0.067,-0.223c0.035,-0.073 0.057,-0.147 0.066,-0.223c0.01,-0.076 0.029,-0.125 0.057,-0.147c0.089,-0.091 0.164,-0.178 0.225,-0.26c0.062,-0.082 0.148,-0.155 0.259,-0.218c0.136,-0.06 0.265,-0.121 0.389,-0.182c0.123,-0.062 0.238,-0.111 0.346,-0.149c0.132,-0.035 0.241,-0.085 0.327,-0.152c0.117,-0.113 0.239,-0.22 0.367,-0.319c0.128,-0.1 0.24,-0.22 0.335,-0.362c0.142,-0.111 0.293,-0.24 0.453,-0.386c0.159,-0.147 0.334,-0.26 0.523,-0.339c0.054,-0.019 0.138,-0.072 0.252,-0.161c0.338,-0.24 0.714,-0.372 1.128,-0.397c0.079,-0.016 0.151,-0.026 0.216,-0.031c0.064,-0.004 0.135,-0.002 0.21,0.008l0.28,-0.081c0.212,-0.05 0.384,0.01 0.517,0.181c0.041,0.082 0.101,0.16 0.182,0.234c0.08,0.075 0.155,0.142 0.225,0.202c0.18,0.202 0.352,0.417 0.516,0.643c0.164,0.226 0.306,0.474 0.426,0.746c0.202,0.436 0.372,0.869 0.511,1.297c0.138,0.428 0.269,0.868 0.392,1.32l0.477,1.716c0.007,0.155 0.052,0.301 0.138,0.441c0.154,0.404 0.257,0.809 0.309,1.213c0.052,0.404 0.103,0.815 0.153,1.232c0.019,0.054 0.032,0.107 0.038,0.159c0.006,0.052 0.006,0.103 0,0.154c0.025,0.209 0.043,0.423 0.054,0.642c0.011,0.22 -0.009,0.429 -0.06,0.628c-0.003,0.231 -0.037,0.451 -0.102,0.661c-0.065,0.21 -0.136,0.413 -0.212,0.609c-0.107,0.243 -0.225,0.466 -0.353,0.668c-0.128,0.202 -0.27,0.409 -0.425,0.62c-0.069,0.146 -0.175,0.273 -0.318,0.384c-0.142,0.11 -0.282,0.208 -0.421,0.293c-0.215,0.076 -0.437,0.202 -0.664,0.379c-0.057,0.044 -0.119,0.075 -0.185,0.092c-0.066,0.018 -0.128,0.048 -0.185,0.093c-0.186,0.053 -0.386,0.111 -0.6,0.175c-0.213,0.063 -0.425,0.119 -0.637,0.17c-0.025,-0.004 -0.04,0.014 -0.045,0.052c-0.005,0.038 0.004,0.071 0.026,0.099l0.933,0.849c0.117,0.092 0.222,0.176 0.315,0.252c0.093,0.076 0.185,0.158 0.277,0.246l0.213,0.143c0.281,0.215 0.56,0.442 0.838,0.683c0.278,0.24 0.543,0.479 0.796,0.716c0.489,0.395 0.978,0.797 1.466,1.205c0.487,0.408 0.946,0.844 1.375,1.309c0.389,0.382 0.72,0.809 0.995,1.28c0.066,0.085 0.131,0.177 0.196,0.275c0.065,0.098 0.145,0.178 0.239,0.242l0.1,0.128c0.36,0.404 0.527,0.913 0.501,1.526c-0.01,0.076 -0.026,0.151 -0.048,0.225c-0.022,0.074 -0.038,0.149 -0.047,0.225c-0.019,0.152 -0.086,0.272 -0.2,0.36c-0.107,0.038 -0.165,0.095 -0.175,0.171c-0.098,0.167 -0.221,0.274 -0.368,0.319c-0.146,0.046 -0.289,0.111 -0.429,0.197c-0.053,0.019 -0.143,0.02 -0.27,0.004c-0.148,-0.044 -0.303,-0.089 -0.464,-0.135c-0.161,-0.046 -0.317,-0.079 -0.469,-0.098c-0.202,-0.025 -0.406,-0.141 -0.611,-0.346c-0.136,-0.146 -0.26,-0.283 -0.372,-0.413c-0.112,-0.129 -0.22,-0.29 -0.324,-0.483c-0.271,-0.497 -0.649,-0.968 -1.132,-1.413c-0.227,-0.234 -0.443,-0.454 -0.648,-0.66c-0.206,-0.205 -0.438,-0.401 -0.697,-0.588c-0.164,-0.123 -0.321,-0.252 -0.471,-0.386c-0.15,-0.135 -0.32,-0.265 -0.509,-0.392c-0.578,-0.509 -1.169,-1.013 -1.774,-1.513c-0.604,-0.499 -1.208,-1.005 -1.811,-1.517c-0.092,-0.089 -0.196,-0.179 -0.313,-0.271c-0.117,-0.092 -0.233,-0.183 -0.35,-0.275c-0.045,-0.057 -0.114,-0.117 -0.209,-0.18c-0.101,-0.013 -0.156,0.019 -0.166,0.094c-0.003,0.026 -0.012,0.044 -0.026,0.055c-0.014,0.011 -0.023,0.029 -0.026,0.054c-0.009,0.076 -0.019,0.152 -0.028,0.228c-0.01,0.076 -0.007,0.153 0.009,0.232c0,0.205 -0.012,0.403 -0.036,0.592c-0.024,0.19 -0.049,0.386 -0.074,0.588c-0.019,0.152 -0.031,0.298 -0.036,0.438c-0.005,0.141 -0.004,0.289 0.002,0.443c-0.009,0.076 -0.013,0.159 -0.012,0.249c0.002,0.09 -0.002,0.173 -0.012,0.249c-0.054,0.224 -0.07,0.453 -0.048,0.687c0.022,0.234 0.031,0.466 0.028,0.697l0.104,1.014c0.012,0.104 0.024,0.215 0.035,0.332c0.011,0.117 0.021,0.24 0.03,0.369c0.013,0.105 0.007,0.2 -0.016,0.287c-0.024,0.087 -0.055,0.179 -0.093,0.277c-0.003,0.026 -0.033,0.06 -0.09,0.105c-0.13,0.009 -0.229,0.086 -0.299,0.232c-0.098,0.167 -0.225,0.311 -0.382,0.433c-0.156,0.121 -0.318,0.236 -0.486,0.343c-0.028,0.022 -0.082,0.041 -0.161,0.057c-0.079,0.016 -0.145,0.033 -0.199,0.052zm3.147,-13.082l0.076,0.009c0.284,-0.015 0.576,-0.036 0.874,-0.063c0.299,-0.027 0.593,-0.073 0.884,-0.139c0.288,-0.041 0.545,-0.15 0.773,-0.327c0.199,-0.154 0.313,-0.345 0.341,-0.573c0.048,-0.174 0.076,-0.343 0.084,-0.509c0.008,-0.166 -0.002,-0.341 -0.031,-0.524c-0.044,-0.467 -0.101,-0.93 -0.172,-1.389c-0.07,-0.458 -0.169,-0.9 -0.295,-1.327l-0.227,-0.952c-0.044,-0.263 -0.101,-0.52 -0.172,-0.773c-0.071,-0.253 -0.155,-0.501 -0.253,-0.744c-0.019,-0.054 -0.037,-0.114 -0.054,-0.18c-0.018,-0.067 -0.036,-0.127 -0.055,-0.18l-0.132,-0.171c-0.063,-0.111 -0.152,-0.122 -0.266,-0.033c-0.025,-0.004 -0.066,0.017 -0.123,0.061c-0.205,0.205 -0.394,0.425 -0.564,0.661c-0.171,0.235 -0.288,0.503 -0.352,0.803c-0.038,0.098 -0.069,0.196 -0.095,0.296c-0.025,0.099 -0.046,0.212 -0.061,0.339l-0.205,1.63c-0.07,0.35 -0.123,0.716 -0.158,1.097c-0.035,0.38 -0.1,0.744 -0.195,1.092c-0.035,0.072 -0.05,0.148 -0.047,0.225c0.003,0.077 0,0.154 -0.01,0.23c0.006,0.155 0.001,0.301 -0.017,0.44c-0.017,0.139 -0.036,0.285 -0.055,0.436c-0.031,0.253 -0.019,0.409 0.038,0.467c0.057,0.059 0.213,0.091 0.469,0.098zm16.194,15.214c-0.151,-0.018 -0.251,-0.043 -0.298,-0.074c-0.095,-0.063 -0.179,-0.112 -0.252,-0.147c-0.073,-0.034 -0.146,-0.069 -0.218,-0.103c-0.07,-0.06 -0.133,-0.125 -0.188,-0.196c-0.056,-0.071 -0.104,-0.147 -0.146,-0.229c-0.044,-0.057 -0.092,-0.089 -0.142,-0.095c-0.152,-0.018 -0.218,-0.103 -0.2,-0.255c-0.007,-0.155 -0.014,-0.31 -0.02,-0.464c-0.007,-0.155 -0.014,-0.31 -0.021,-0.465c0.002,-0.23 0.011,-0.46 0.026,-0.689c0.015,-0.229 0.01,-0.448 -0.016,-0.657l0.041,-0.341c0.013,-0.101 0.017,-0.19 0.014,-0.268c-0.004,-0.077 0.001,-0.166 0.013,-0.268c-0.035,-0.132 -0.023,-0.233 0.037,-0.303c0.106,-0.449 0.161,-0.904 0.166,-1.365c-0.01,-0.13 -0.007,-0.258 0.008,-0.384c0.016,-0.127 0.018,-0.255 0.009,-0.384c0.03,-0.253 0.062,-0.512 0.094,-0.778c0.032,-0.265 0.039,-0.527 0.019,-0.786l0.074,-0.607c0.024,-0.203 0.041,-0.393 0.05,-0.572c0.009,-0.178 0.011,-0.357 0.008,-0.537c0.002,-0.231 0.011,-0.461 0.026,-0.69c0.015,-0.229 0.024,-0.459 0.026,-0.69c-0.019,-0.053 -0.021,-0.143 -0.006,-0.27c-0.009,-0.129 -0.012,-0.264 -0.008,-0.405c0.004,-0.141 0.014,-0.274 0.03,-0.4l0.116,-1.911c0,-0.205 0.005,-0.403 0.015,-0.594c0.011,-0.192 0.027,-0.376 0.048,-0.553c0.012,-0.306 0.023,-0.613 0.035,-0.919c0.012,-0.307 0.022,-0.601 0.03,-0.882c0.006,-0.05 0.006,-0.102 0,-0.154c-0.007,-0.052 -0.008,-0.091 -0.005,-0.116c0.037,-0.303 0.061,-0.608 0.072,-0.915c0.012,-0.306 0.025,-0.625 0.04,-0.957l0.015,-1.076c-0.026,-0.414 0.015,-0.858 0.124,-1.332c0.028,-0.228 0.139,-0.406 0.335,-0.537c0.056,-0.044 0.098,-0.071 0.125,-0.081c0.027,-0.009 0.054,-0.025 0.083,-0.047c0.129,-0.01 0.203,-0.091 0.222,-0.243c0.006,-0.05 0.059,-0.069 0.161,-0.057l0.189,0.023c0.026,0.003 0.045,-0.001 0.059,-0.012c0.015,-0.011 0.034,-0.015 0.06,-0.012c0.053,-0.019 0.101,-0.045 0.144,-0.079c0.042,-0.033 0.076,-0.048 0.102,-0.045c0.05,0.006 0.1,0.019 0.149,0.037c0.049,0.019 0.097,0.044 0.145,0.076c0.05,0.006 0.09,-0.002 0.118,-0.024c0.13,-0.01 0.262,0.012 0.396,0.067c0.135,0.055 0.249,0.114 0.344,0.177c0.149,0.043 0.25,0.158 0.305,0.345c0.048,0.236 0.091,0.466 0.128,0.689c0.037,0.222 0.054,0.449 0.052,0.68l-0.037,0.303c0.029,0.183 0.032,0.369 0.009,0.559c-0.023,0.19 -0.047,0.386 -0.072,0.588c-0.021,0.177 -0.036,0.348 -0.043,0.514c-0.008,0.166 -0.008,0.327 -0.001,0.481c-0.009,0.076 -0.018,0.152 -0.028,0.228c-0.009,0.076 -0.006,0.153 0.011,0.232c-0.019,0.152 -0.031,0.304 -0.037,0.458c-0.006,0.153 -0.007,0.319 -0.003,0.499c-0.009,0.282 -0.019,0.576 -0.03,0.882c-0.012,0.307 -0.036,0.611 -0.073,0.915c-0.015,0.126 -0.032,0.259 -0.049,0.398c-0.016,0.139 -0.02,0.273 -0.01,0.403c0.016,0.079 0.019,0.156 0.01,0.232c-0.009,0.076 -0.018,0.152 -0.028,0.228l-0.092,0.758c-0.018,0.152 -0.021,0.28 -0.008,0.384c0.029,0.183 0.027,0.356 -0.005,0.519c-0.033,0.163 -0.048,0.334 -0.044,0.514l-0.098,1.759c-0.006,0.256 -0.018,0.517 -0.038,0.784c-0.02,0.267 -0.046,0.54 -0.08,0.818c-0.013,0.101 -0.026,0.209 -0.039,0.323c-0.014,0.113 -0.015,0.222 -0.002,0.326c0.016,0.079 0.02,0.157 0.011,0.233c-0.01,0.076 -0.019,0.151 -0.028,0.227c0.022,0.029 0.023,0.074 0.003,0.135c-0.021,0.062 -0.021,0.12 -0.002,0.173c0.029,0.183 0.033,0.363 0.011,0.54c-0.021,0.177 -0.045,0.367 -0.069,0.569c-0.012,0.102 -0.019,0.21 -0.02,0.325c-0.002,0.115 -0.01,0.236 -0.025,0.363c0.01,0.129 0.005,0.27 -0.013,0.422c-0.019,0.151 -0.035,0.29 -0.051,0.417c0.01,0.129 0.007,0.264 -0.01,0.403c-0.017,0.139 -0.021,0.273 -0.011,0.402c0.019,0.054 0.026,0.106 0.02,0.157c-0.034,0.278 -0.043,0.559 -0.026,0.843c0.017,0.285 0.033,0.569 0.05,0.853c0.016,0.079 0.019,0.163 0.008,0.251c-0.011,0.089 -0.021,0.171 -0.03,0.247c-0.009,0.076 -0.042,0.136 -0.099,0.18c-0.11,0.064 -0.205,0.206 -0.283,0.428c-0.009,0.076 -0.055,0.134 -0.137,0.176c-0.186,0.054 -0.35,0.137 -0.492,0.248c-0.224,0.152 -0.475,0.211 -0.753,0.177zm12.34,0.797c-0.102,0 -0.191,-0.001 -0.267,-0.001c-0.077,0 -0.166,-0.013 -0.268,-0.039c-0.051,0 -0.108,-0.006 -0.172,-0.019c-0.063,-0.013 -0.121,-0.019 -0.172,-0.02c-0.407,-0.026 -0.789,-0.103 -1.145,-0.231c-0.357,-0.128 -0.713,-0.282 -1.069,-0.461c-0.026,0 -0.045,-0.007 -0.057,-0.019c-0.013,-0.013 -0.032,-0.02 -0.058,-0.02c-0.254,-0.128 -0.477,-0.281 -0.667,-0.46c-0.191,-0.178 -0.375,-0.357 -0.553,-0.536c-0.203,-0.255 -0.343,-0.497 -0.419,-0.727c-0.101,-0.204 -0.228,-0.42 -0.38,-0.65c-0.255,-0.281 -0.445,-0.638 -0.571,-1.071c-0.076,-0.204 -0.152,-0.408 -0.228,-0.612c-0.076,-0.204 -0.139,-0.42 -0.19,-0.65c-0.025,-0.076 -0.05,-0.159 -0.076,-0.248c-0.025,-0.089 -0.063,-0.185 -0.114,-0.287c-0.05,-0.128 -0.094,-0.268 -0.132,-0.421c-0.038,-0.153 -0.082,-0.305 -0.133,-0.458c-0.025,-0.102 -0.057,-0.274 -0.094,-0.516c-0.038,-0.242 -0.057,-0.389 -0.057,-0.44l0.004,-1.643c0.026,-0.153 0.051,-0.299 0.077,-0.439c0.026,-0.14 0.052,-0.286 0.078,-0.439l0.038,-0.038c0,0.025 0.006,0.038 0.019,0.038c0.013,0 0.019,0.013 0.019,0.038c0.025,0 0.038,0.007 0.038,0.019c0,0.013 0,0.019 0,0.019c0.025,0.026 0.038,0.013 0.038,-0.038c0.001,-0.152 -0.012,-0.28 -0.037,-0.382c0,-0.051 -0.006,-0.102 -0.019,-0.153c-0.012,-0.051 0.032,-0.089 0.134,-0.114c0.026,0 0.038,-0.038 0.039,-0.115l0.347,-1.68c0.026,-0.127 0.052,-0.248 0.077,-0.363c0.026,-0.114 0.052,-0.222 0.078,-0.324l0.077,-0.42c-0.026,0.05 -0.006,-0.039 0.058,-0.268c0.064,-0.229 0.109,-0.382 0.135,-0.458c0.051,-0.127 0.121,-0.254 0.211,-0.382c0.089,-0.127 0.146,-0.216 0.172,-0.267c0.204,-0.228 0.396,-0.546 0.575,-0.954l0.729,-1.144c0.102,-0.102 0.153,-0.229 0.153,-0.382c-0.025,-0.127 0.014,-0.267 0.116,-0.42c0.077,-0.153 0.16,-0.305 0.249,-0.458c0.09,-0.152 0.186,-0.305 0.288,-0.458c0.128,-0.203 0.275,-0.413 0.441,-0.629c0.166,-0.216 0.325,-0.413 0.478,-0.591c0.052,-0.077 0.109,-0.153 0.173,-0.229c0.064,-0.076 0.147,-0.127 0.249,-0.152c0.051,0 0.089,-0.013 0.114,-0.038c0.026,-0.026 0.051,-0.051 0.077,-0.077c0.51,-0.533 1.085,-1.029 1.722,-1.486c0.052,-0.051 0.103,-0.102 0.154,-0.152c0.051,-0.051 0.102,-0.089 0.153,-0.115c0.127,-0.076 0.267,-0.114 0.42,-0.113c0.128,0 0.23,-0.013 0.306,-0.038c0.076,0 0.191,-0.025 0.344,-0.076c0.178,-0.05 0.318,-0.024 0.42,0.078c0.153,0.153 0.407,0.204 0.764,0.154c0.229,-0.025 0.42,0.103 0.572,0.384c0.051,0.076 0.095,0.153 0.133,0.229c0.038,0.077 0.096,0.14 0.172,0.192c0.076,0.153 0.184,0.293 0.324,0.421c0.14,0.127 0.26,0.255 0.362,0.382l0.495,0.689c0.051,0.077 0.108,0.16 0.171,0.249c0.064,0.089 0.121,0.172 0.172,0.249c0.127,0.127 0.203,0.255 0.228,0.382c0.051,0.128 0.095,0.211 0.133,0.249c0.039,0.038 0.07,0.159 0.095,0.363c0.025,0.102 0.032,0.159 0.019,0.172c-0.013,0.013 0.032,0.019 0.134,0.019c0.101,0.001 0.152,0.064 0.152,0.192c-0.001,0.28 -0.052,0.522 -0.154,0.725c-0.052,0.077 -0.096,0.115 -0.134,0.115c-0.039,0 -0.083,0.025 -0.134,0.076c-0.077,0.127 -0.16,0.254 -0.25,0.381c-0.089,0.128 -0.185,0.267 -0.287,0.42c-0.077,0.127 -0.172,0.242 -0.287,0.343c-0.115,0.102 -0.236,0.204 -0.364,0.305c-0.204,0.203 -0.446,0.279 -0.726,0.228c-0.23,-0.001 -0.395,-0.014 -0.497,-0.04c-0.076,-0.025 -0.146,-0.057 -0.21,-0.096c-0.064,-0.038 -0.134,-0.07 -0.21,-0.095c-0.051,-0.001 -0.102,-0.026 -0.153,-0.077c-0.025,-0.051 -0.05,-0.096 -0.076,-0.134c-0.025,-0.038 -0.063,-0.07 -0.114,-0.096c-0.127,-0.077 -0.229,-0.172 -0.305,-0.287c-0.076,-0.115 -0.14,-0.223 -0.19,-0.325c-0.026,-0.077 -0.038,-0.153 -0.038,-0.23c0,-0.076 0,-0.14 0,-0.191c-0.025,-0.153 -0.044,-0.305 -0.056,-0.458c-0.012,-0.153 -0.044,-0.306 -0.094,-0.459c0,-0.051 -0.064,-0.077 -0.191,-0.077c-0.153,0.102 -0.306,0.203 -0.46,0.305c-0.153,0.101 -0.293,0.228 -0.421,0.381l-1.187,1.411c-0.077,0.076 -0.147,0.159 -0.211,0.248c-0.064,0.089 -0.121,0.172 -0.172,0.248c-0.102,0.127 -0.198,0.261 -0.288,0.4c-0.089,0.14 -0.198,0.274 -0.325,0.401c-0.051,0.051 -0.09,0.102 -0.115,0.152c-0.077,0.179 -0.16,0.344 -0.25,0.497c-0.089,0.152 -0.172,0.33 -0.249,0.534c-0.128,0.254 -0.237,0.528 -0.327,0.821c-0.09,0.292 -0.16,0.592 -0.212,0.897c-0.026,0.382 -0.104,0.764 -0.232,1.146c-0.026,0.127 -0.051,0.267 -0.077,0.42c-0.026,0.153 -0.052,0.305 -0.078,0.458c-0.025,0.229 -0.064,0.459 -0.116,0.688c-0.051,0.229 -0.064,0.471 -0.039,0.726c0.049,0.509 0.125,0.993 0.226,1.452c0.075,0.255 0.145,0.503 0.208,0.745c0.063,0.243 0.133,0.491 0.209,0.746c0.025,0.076 0.05,0.153 0.076,0.229c0.025,0.077 0.05,0.153 0.075,0.23c0.152,0.357 0.432,0.637 0.839,0.842c0.153,0.077 0.318,0.115 0.497,0.116c0.152,0 0.305,0.007 0.458,0.02c0.153,0.013 0.306,0.007 0.459,-0.018c0.713,-0.075 1.375,-0.188 1.987,-0.34c0.28,-0.05 0.548,-0.126 0.803,-0.227c0.255,-0.101 0.51,-0.203 0.765,-0.304c0.204,-0.076 0.395,-0.19 0.574,-0.343c0.204,-0.152 0.414,-0.311 0.631,-0.476c0.217,-0.165 0.427,-0.336 0.632,-0.514c0.204,-0.178 0.408,-0.356 0.612,-0.534c0.204,-0.178 0.396,-0.368 0.574,-0.572c0.077,-0.076 0.192,-0.165 0.345,-0.266c0.076,-0.051 0.153,-0.102 0.229,-0.153c0.077,-0.05 0.141,-0.101 0.192,-0.152c0.127,-0.076 0.249,-0.152 0.363,-0.229c0.115,-0.076 0.249,-0.114 0.402,-0.113c0.076,-0.051 0.159,-0.083 0.248,-0.095c0.089,-0.013 0.172,-0.032 0.249,-0.057c0.229,-0.076 0.433,-0.075 0.611,0.001c0.076,0.026 0.153,0.052 0.229,0.077c0.076,0.026 0.153,0.064 0.229,0.115c0.204,0.128 0.394,0.332 0.572,0.613c0.127,0.306 0.19,0.573 0.189,0.803l0,0.229c-0.001,0.331 -0.129,0.624 -0.384,0.878c-0.281,0.356 -0.575,0.635 -0.881,0.838c-0.178,0.102 -0.357,0.242 -0.536,0.42c-0.255,0.203 -0.517,0.419 -0.784,0.647c-0.268,0.229 -0.543,0.445 -0.823,0.648l-0.153,0.153c-0.077,0.05 -0.154,0.114 -0.23,0.19c-0.077,0.076 -0.166,0.14 -0.268,0.191c-0.179,0.177 -0.383,0.336 -0.612,0.476c-0.23,0.139 -0.459,0.273 -0.689,0.399c-0.229,0.102 -0.446,0.254 -0.651,0.458c-0.076,0.076 -0.153,0.152 -0.229,0.228c-0.077,0.076 -0.166,0.14 -0.268,0.191c-0.332,0.177 -0.714,0.355 -1.148,0.532c-0.025,0.025 -0.063,0.051 -0.114,0.076c-0.051,0.026 -0.102,0.051 -0.153,0.076c-0.153,0.076 -0.313,0.133 -0.478,0.171c-0.166,0.038 -0.325,0.07 -0.478,0.095c-0.204,0.025 -0.408,0.043 -0.612,0.056c-0.203,0.012 -0.407,0.043 -0.611,0.094z"/>
    </g>
   </g>
  </g>
 </g>

</svg>