<svg width="553.369" height="75.977" viewBox="0 0 553.369 75.977" xmlns="http://www.w3.org/2000/svg"><g id="svgGroup" stroke-linecap="round" fill-rule="evenodd" font-size="9pt" stroke="#fcedd8" stroke-width="0.25mm" fill="#fcedd8" style="stroke:#fcedd8;stroke-width:0.25mm;fill:#fcedd8"><path d="M 374.609 23.096 L 372.412 13.379 L 370.215 23.096 Q 368.896 29.199 368.115 32.715 L 357.813 75 L 343.311 75 L 325.391 4.199 L 335.107 4.199 L 344.092 40.283 L 350.684 66.113 L 357.08 40.283 L 365.967 4.199 L 378.809 4.199 L 387.695 40.283 L 394.092 66.113 L 400.684 40.283 L 409.668 4.199 L 419.385 4.199 L 401.514 75 L 387.012 75 L 376.709 32.715 A 908.944 908.944 0 0 1 376.285 30.795 Q 375.813 28.649 375.198 25.815 A 3128.937 3128.937 0 0 1 374.609 23.096 Z M 317.188 7.178 L 314.795 16.016 Q 308.764 13.681 303.96 12.897 A 28.304 28.304 0 0 0 299.414 12.5 A 26.699 26.699 0 0 0 295.414 12.781 Q 291.755 13.337 289.258 14.99 Q 285.498 17.48 285.498 21.924 A 12.834 12.834 0 0 0 285.687 24.186 Q 285.932 25.555 286.496 26.664 A 7.491 7.491 0 0 0 286.841 27.271 A 8.402 8.402 0 0 0 288.242 28.928 Q 289.493 30.089 291.406 31.104 A 29.509 29.509 0 0 0 293.668 32.172 Q 296.246 33.269 299.87 34.365 A 97.293 97.293 0 0 0 300.391 34.521 A 53.31 53.31 0 0 1 305.983 36.456 Q 311.654 38.806 314.694 41.986 A 15.277 15.277 0 0 1 315.039 42.358 A 16.366 16.366 0 0 1 318.668 49.341 Q 319.295 51.795 319.374 54.683 A 30.729 30.729 0 0 1 319.385 55.518 A 22.742 22.742 0 0 1 318.488 62.074 A 17.284 17.284 0 0 1 312.988 70.459 A 21.511 21.511 0 0 1 304.842 74.688 Q 301.699 75.581 297.965 75.804 A 42.81 42.81 0 0 1 295.41 75.879 A 44.221 44.221 0 0 1 285.962 74.794 Q 281.714 73.864 277.123 72.138 A 81.917 81.917 0 0 1 274.023 70.898 L 276.904 62.207 Q 283.496 64.795 287.402 65.796 Q 291.309 66.797 295.41 66.797 A 22.702 22.702 0 0 0 299.541 66.444 Q 301.823 66.021 303.645 65.092 A 11.874 11.874 0 0 0 305.664 63.794 Q 309.424 60.791 309.424 55.615 A 12.853 12.853 0 0 0 309.208 53.193 Q 308.925 51.718 308.271 50.537 A 7.689 7.689 0 0 0 308.008 50.098 Q 306.592 47.9 303.149 46.143 A 29.837 29.837 0 0 0 300.719 45.049 Q 298.158 44.019 294.599 43.007 A 100.742 100.742 0 0 0 293.408 42.676 A 48.272 48.272 0 0 1 288.179 40.967 Q 282.557 38.74 279.639 35.547 Q 275.587 31.113 275.491 23.655 A 28.266 28.266 0 0 1 275.488 23.291 A 22.197 22.197 0 0 1 276.318 17.06 A 16.61 16.61 0 0 1 281.909 8.643 A 21.651 21.651 0 0 1 289.545 4.724 Q 292.587 3.826 296.203 3.546 A 44.045 44.045 0 0 1 299.609 3.418 A 37.447 37.447 0 0 1 299.825 3.417 Q 305.334 3.417 311.09 5.037 A 52.647 52.647 0 0 1 317.188 7.178 Z M 9.619 45.898 L 9.619 75 L 0 75 L 0 4.199 L 20.898 4.199 Q 29.025 4.199 34.605 6.495 A 19.973 19.973 0 0 1 39.771 9.546 A 17.31 17.31 0 0 1 45.757 19.828 A 26.246 26.246 0 0 1 46.24 25 A 24.582 24.582 0 0 1 45.635 30.595 A 18.009 18.009 0 0 1 42.773 37.036 A 18.557 18.557 0 0 1 36.375 42.589 A 24.85 24.85 0 0 1 32.715 44.189 L 48.828 75 L 37.744 75 L 22.705 45.898 L 9.619 45.898 Z M 440.381 45.898 L 440.381 75 L 430.762 75 L 430.762 4.199 L 451.66 4.199 Q 459.787 4.199 465.367 6.495 A 19.973 19.973 0 0 1 470.532 9.546 A 17.31 17.31 0 0 1 476.518 19.828 A 26.246 26.246 0 0 1 477.002 25 A 24.582 24.582 0 0 1 476.396 30.595 A 18.009 18.009 0 0 1 473.535 37.036 A 18.557 18.557 0 0 1 467.137 42.589 A 24.85 24.85 0 0 1 463.477 44.189 L 479.59 75 L 468.506 75 L 453.467 45.898 L 440.381 45.898 Z M 147.803 74.902 L 146.484 68.506 A 25.735 25.735 0 0 1 143.39 71.531 A 18.715 18.715 0 0 1 139.429 74.048 A 18.87 18.87 0 0 1 132.604 75.738 A 22.402 22.402 0 0 1 131.201 75.781 A 27.928 27.928 0 0 1 124.359 74.991 A 19.017 19.017 0 0 1 114.502 69.092 A 21.84 21.84 0 0 1 110.071 60.999 Q 108.594 56.25 108.594 50.098 Q 108.594 37.305 115.601 30.005 Q 122.607 22.705 135.01 22.705 Q 139.502 22.705 145.898 24.121 L 145.898 0 L 155.273 0 L 155.273 74.902 L 147.803 74.902 Z M 97.412 42.285 L 97.412 75 L 90.186 75 L 88.818 68.994 A 27.206 27.206 0 0 1 81.623 73.888 A 23.072 23.072 0 0 1 71.924 75.977 A 23.198 23.198 0 0 1 66.789 75.441 Q 63.104 74.604 60.416 72.464 A 14.443 14.443 0 0 1 59.668 71.826 A 13.725 13.725 0 0 1 55.274 63.111 A 19.329 19.329 0 0 1 55.127 60.693 A 15.756 15.756 0 0 1 56.287 54.54 Q 57.903 50.69 61.768 48.047 A 23.058 23.058 0 0 1 68.257 45.044 Q 71.166 44.179 74.651 43.8 A 53.502 53.502 0 0 1 80.42 43.506 L 87.988 43.506 L 87.988 42.09 Q 87.598 31.104 76.709 31.104 A 26.308 26.308 0 0 0 73.414 31.323 Q 71.751 31.534 69.922 31.945 A 45.427 45.427 0 0 0 69.238 32.104 A 58.257 58.257 0 0 0 61.413 34.604 A 64.071 64.071 0 0 0 60.889 34.814 L 58.301 27.197 A 47.344 47.344 0 0 1 67.798 23.95 A 45.525 45.525 0 0 1 74.188 22.938 A 38.575 38.575 0 0 1 77.393 22.803 A 29.36 29.36 0 0 1 83.229 23.347 Q 88.718 24.461 92.212 27.856 A 16.349 16.349 0 0 1 96.554 35.381 Q 97.278 37.993 97.391 41.112 A 32.357 32.357 0 0 1 97.412 42.285 Z M 552.832 27.002 L 549.561 34.521 A 30.236 30.236 0 0 0 544.124 32.118 A 21.966 21.966 0 0 0 537.354 31.006 A 17.397 17.397 0 0 0 532.711 31.591 A 12.439 12.439 0 0 0 526.27 35.742 A 15.593 15.593 0 0 0 523.466 41.062 Q 522.751 43.34 522.5 46.094 A 34.405 34.405 0 0 0 522.363 49.219 A 30.943 30.943 0 0 0 522.754 54.307 Q 523.211 57.043 524.202 59.226 A 14.151 14.151 0 0 0 526.367 62.646 A 12.932 12.932 0 0 0 533.457 66.809 A 19.89 19.89 0 0 0 537.939 67.285 Q 540.492 67.285 543.619 66.567 A 37.137 37.137 0 0 0 544.189 66.431 A 42.402 42.402 0 0 0 550.83 64.209 L 553.369 71.68 Q 549.561 73.486 545.166 74.536 A 39.436 39.436 0 0 1 540.377 75.385 A 31.693 31.693 0 0 1 536.865 75.586 A 30.877 30.877 0 0 1 529.56 74.772 A 20.422 20.422 0 0 1 519.043 68.701 A 22.515 22.515 0 0 1 514.128 59.774 Q 512.744 55.124 512.744 49.219 Q 512.744 36.719 519.238 29.712 A 21.272 21.272 0 0 1 530.748 23.356 A 31.799 31.799 0 0 1 537.354 22.705 A 30.229 30.229 0 0 1 551.902 26.482 A 35.818 35.818 0 0 1 552.832 27.002 Z M 216.846 22.607 Q 228.418 22.607 234.814 29.614 A 23.079 23.079 0 0 1 239.898 38.95 Q 241.211 43.51 241.211 49.219 Q 241.211 61.816 234.814 68.799 A 20.878 20.878 0 0 1 223.573 75.099 A 31.401 31.401 0 0 1 216.846 75.781 A 31.036 31.036 0 0 1 209.474 74.956 A 20.735 20.735 0 0 1 198.828 68.799 A 22.97 22.97 0 0 1 193.745 59.482 Q 192.432 54.927 192.432 49.219 A 39.88 39.88 0 0 1 193.154 41.386 Q 194.079 36.77 196.19 33.191 A 21.457 21.457 0 0 1 198.828 29.614 A 20.867 20.867 0 0 1 210.083 23.294 A 31.51 31.51 0 0 1 216.846 22.607 Z M 170.557 75 L 170.557 23.584 L 179.932 23.584 L 179.932 75 L 170.557 75 Z M 490.869 75 L 490.869 23.584 L 500.244 23.584 L 500.244 75 L 490.869 75 Z M 145.898 57.422 L 145.898 32.52 A 130.319 130.319 0 0 0 144.022 32.076 Q 141.425 31.483 139.928 31.279 A 19.008 19.008 0 0 0 139.893 31.274 A 26.924 26.924 0 0 0 138.281 31.111 Q 136.847 31.006 135.107 31.006 Q 127.1 31.006 122.656 36.06 A 16.765 16.765 0 0 0 119.189 42.538 Q 118.457 45.049 118.274 48.046 A 33.656 33.656 0 0 0 118.213 50.098 A 31.317 31.317 0 0 0 118.576 55.03 Q 118.986 57.592 119.857 59.664 A 14.317 14.317 0 0 0 121.753 62.939 A 11.511 11.511 0 0 0 129.83 67.37 A 16.754 16.754 0 0 0 131.787 67.48 A 15.542 15.542 0 0 0 136.792 66.698 A 13.737 13.737 0 0 0 140.405 64.844 A 14.922 14.922 0 0 0 144.983 59.48 A 19.087 19.087 0 0 0 145.898 57.422 Z M 216.846 30.908 A 17.722 17.722 0 0 0 212.331 31.45 A 12.057 12.057 0 0 0 205.835 35.596 Q 202.916 39.212 202.248 45.357 A 35.829 35.829 0 0 0 202.051 49.219 A 33.421 33.421 0 0 0 202.42 54.363 Q 202.827 56.967 203.68 59.074 A 14.601 14.601 0 0 0 205.835 62.793 A 12.238 12.238 0 0 0 213.249 67.15 A 18.576 18.576 0 0 0 216.846 67.48 A 17.515 17.515 0 0 0 221.382 66.927 A 12.129 12.129 0 0 0 227.832 62.793 A 15.218 15.218 0 0 0 230.436 57.888 Q 231.151 55.709 231.442 53.061 A 35.252 35.252 0 0 0 231.641 49.219 Q 231.641 43.291 229.946 39.221 A 14.633 14.633 0 0 0 227.832 35.62 A 12.354 12.354 0 0 0 220.125 31.185 A 18.566 18.566 0 0 0 216.846 30.908 Z M 20.898 12.695 L 9.619 12.695 L 9.619 37.402 L 20.898 37.402 Q 36.23 37.402 36.23 25 Q 36.23 18.799 32.471 15.747 A 11.672 11.672 0 0 0 28.915 13.829 Q 25.684 12.704 20.97 12.695 A 39.925 39.925 0 0 0 20.898 12.695 Z M 451.66 12.695 L 440.381 12.695 L 440.381 37.402 L 451.66 37.402 Q 466.992 37.402 466.992 25 Q 466.992 18.799 463.232 15.747 A 11.672 11.672 0 0 0 459.677 13.829 Q 456.446 12.704 451.732 12.695 A 39.925 39.925 0 0 0 451.66 12.695 Z M 87.988 61.279 L 87.988 50.684 L 81.006 50.684 A 38.544 38.544 0 0 0 76.462 50.934 Q 71.835 51.485 68.848 53.247 Q 64.502 55.811 64.502 60.4 A 8.233 8.233 0 0 0 64.798 62.67 A 5.965 5.965 0 0 0 66.895 65.796 A 8.046 8.046 0 0 0 69.556 67.145 Q 70.701 67.493 72.078 67.613 A 17.4 17.4 0 0 0 73.584 67.676 Q 77.686 67.676 81.592 65.942 A 18.898 18.898 0 0 0 85.731 63.462 A 16.233 16.233 0 0 0 87.988 61.279 Z M 170.557 14.209 L 170.557 4.59 L 179.932 4.59 L 179.932 14.209 L 170.557 14.209 Z M 490.869 14.209 L 490.869 4.59 L 500.244 4.59 L 500.244 14.209 L 490.869 14.209 Z" vector-effect="non-scaling-stroke"/></g></svg>