<?xml version="1.0" encoding="utf-8"?>
<svg viewBox="0 0 500 500" xmlns="http://www.w3.org/2000/svg" xmlns:bx="https://boxy-svg.com">
  <defs>
    <bx:grid x="0" y="0" width="21.586" height="21.586"/>
  </defs>
  <circle style="fill: rgb(233, 128, 45);" cx="248.239" cy="248.239" r="226.653"/>
  <path style="fill: rgb(197, 83, 44);" d="M 320.549 100.732 L 315.48 106.317 C 299.667 91.394 281.775 79.807 263.502 78.312 C 207.538 73.735 156.154 103.54 152.591 158.847 C 149.031 214.153 177.52 247.731 177.52 247.731 L 220.907 291.117 L 193.816 404.884 L 263.262 474.386 C 379.218 466.794 471.37 372.019 474.785 254.971 L 320.549 100.732 Z"/>
  <path style="fill: rgb(63, 70, 82);" d="M 298.607 406.208 L 197.872 406.208 C 195.789 406.208 193.819 405.264 192.514 403.637 C 191.211 402.013 190.716 399.884 191.167 397.849 L 241.535 171.196 C 242.232 168.055 245.019 165.82 248.239 165.82 C 251.459 165.82 254.247 168.056 254.944 171.196 L 305.312 397.849 C 305.763 399.884 305.269 402.013 303.964 403.637 C 302.66 405.264 300.69 406.208 298.607 406.208 Z M 206.433 392.473 L 290.044 392.473 L 248.239 204.349 L 206.433 392.473 Z"/>
  <path style="fill: rgb(39, 44, 51);" d="M 305.312 397.849 L 254.944 171.196 C 254.247 168.055 251.459 165.82 248.239 165.82 C 248.067 165.82 247.9 165.852 247.731 165.864 L 247.731 206.636 L 248.239 204.349 L 290.046 392.473 L 247.731 392.473 L 247.731 406.208 L 298.607 406.208 C 300.69 406.208 302.66 405.264 303.964 403.637 C 305.267 402.013 305.762 399.884 305.312 397.849 Z"/>
  <circle style="fill: rgb(255, 205, 124);" cx="248.239" cy="172.688" r="25.183"/>
  <path style="fill: rgb(174, 140, 85);" d="M 248.239 147.504 C 248.069 147.504 247.902 147.527 247.731 147.53 L 247.731 197.845 C 247.902 197.848 248.069 197.87 248.239 197.87 C 262.148 197.87 273.422 186.597 273.422 172.687 C 273.422 158.779 262.148 147.504 248.239 147.504 Z"/>
  <g style="" transform="matrix(0.885363, 0, 0, 0.885363, 21.586138, 21.586277)">
    <path style="fill: rgb(252, 237, 216);" d="M291.959,211.649c-1.545,0-3.087-0.59-4.267-1.767c-2.357-2.355-2.357-6.177,0-8.532 c17.475-17.477,17.475-45.911,0-63.388c-17.479-17.475-45.909-17.475-63.388,0c-17.475,17.477-17.475,45.911,0,63.388 c2.357,2.355,2.357,6.177,0,8.532c-2.357,2.357-6.175,2.357-8.532,0c-22.181-22.18-22.181-58.271,0-80.451 c22.178-22.182,58.273-22.182,80.451,0c22.181,22.18,22.181,58.271,0,80.451C295.046,211.061,293.504,211.649,291.959,211.649z"/>
    <path style="fill: rgb(252, 237, 216);" d="M312.384,232.074c-1.545,0-3.088-0.59-4.267-1.767c-2.357-2.355-2.357-6.177,0-8.532 c13.921-13.921,21.587-32.432,21.587-52.117s-7.666-38.197-21.587-52.117s-32.43-21.59-52.117-21.59 c-19.687,0-38.197,7.666-52.117,21.587s-21.587,32.432-21.587,52.117s7.666,38.197,21.587,52.117c2.357,2.355,2.357,6.177,0,8.532 c-2.357,2.357-6.175,2.357-8.532,0c-16.2-16.2-25.122-37.74-25.122-60.65s8.923-44.449,25.122-60.65 c33.44-33.444,87.859-33.444,121.299,0c16.2,16.2,25.122,37.74,25.122,60.65s-8.923,44.449-25.122,60.65 C315.471,231.484,313.928,232.074,312.384,232.074z"/>
    <path style="fill: rgb(252, 237, 216);" d="M333.405,254.504c-1.545,0-3.088-0.59-4.267-1.767c-2.357-2.355-2.357-6.177,0-8.532 c40.329-40.329,40.329-105.948,0-146.279c-19.537-19.535-45.511-30.296-73.14-30.296s-53.603,10.759-73.14,30.296 c-19.534,19.537-30.292,45.509-30.292,73.137c0,27.629,10.759,53.603,30.294,73.14c2.357,2.355,2.357,6.177,0,8.532 c-2.353,2.357-6.175,2.357-8.532,0c-21.816-21.814-33.83-50.819-33.83-81.672c0-30.851,12.014-59.856,33.83-81.67 C196.143,67.577,225.149,55.561,256,55.561s59.857,12.016,81.672,33.832c45.034,45.034,45.034,118.308,0,163.342 C336.493,253.914,334.95,254.504,333.405,254.504z"/>
  </g>
  <g style="" transform="matrix(0.885363, 0, 0, 0.885363, 21.586138, 21.586277)">
    <path style="fill: rgb(255, 205, 124);" d="M296.226,129.431c-11.235-11.236-26.041-16.77-40.8-16.622v12.062 c11.667-0.148,23.383,4.21,32.268,13.093c17.475,17.477,17.475,45.911,0,63.388c-2.357,2.355-2.357,6.177,0,8.532 c1.179,1.179,2.722,1.767,4.267,1.767s3.088-0.59,4.267-1.767C318.407,187.702,318.407,151.611,296.226,129.431z"/>
    <path style="fill: rgb(255, 205, 124);" d="M316.65,109.006c-16.867-16.868-39.069-25.217-61.225-25.069v12.028 c0.191-0.002,0.383-0.014,0.574-0.014c19.687,0,38.197,7.666,52.117,21.587s21.587,32.432,21.587,52.117 s-7.666,38.197-21.587,52.117c-2.357,2.355-2.357,6.177,0,8.532c1.179,1.179,2.722,1.767,4.267,1.767 c1.545,0,3.087-0.59,4.267-1.767c16.2-16.2,25.122-37.74,25.122-60.65S332.85,125.207,316.65,109.006z"/>
    <path style="fill: rgb(255, 205, 124);" d="M337.672,89.393C315.857,67.577,286.851,55.561,256,55.561c-0.191,0-0.383,0.014-0.574,0.014v12.067 c0.191,0,0.383-0.014,0.574-0.014c27.627,0,53.603,10.761,73.14,30.296c40.329,40.331,40.329,105.95,0,146.279 c-2.357,2.355-2.357,6.177,0,8.532c1.179,1.179,2.722,1.767,4.267,1.767c1.545,0,3.087-0.59,4.267-1.767 C382.705,207.701,382.705,134.428,337.672,89.393z"/>
  </g>
  <path style="fill: rgb(39, 44, 51);" d="M 277.238 330.658 L 219.24 330.658 C 215.447 330.658 212.372 327.583 212.372 323.79 C 212.372 319.996 215.447 316.922 219.24 316.922 L 277.238 316.922 C 281.032 316.922 284.107 319.996 284.107 323.79 C 284.107 327.583 281.032 330.658 277.238 330.658 Z"/>
  <g style="" transform="matrix(0.976563, 0, 0, 0.976563, 0, 0)"/>
  <g style="" transform="matrix(0.976563, 0, 0, 0.976563, 0, 0)"/>
  <g style="" transform="matrix(0.976563, 0, 0, 0.976563, 0, 0)"/>
  <g style="" transform="matrix(0.976563, 0, 0, 0.976563, 0, 0)"/>
  <g style="" transform="matrix(0.976563, 0, 0, 0.976563, 0, 0)"/>
  <g style="" transform="matrix(0.976563, 0, 0, 0.976563, 0, 0)"/>
  <g style="" transform="matrix(0.976563, 0, 0, 0.976563, 0, 0)"/>
  <g style="" transform="matrix(0.976563, 0, 0, 0.976563, 0, 0)"/>
  <g style="" transform="matrix(0.976563, 0, 0, 0.976563, 0, 0)"/>
  <g style="" transform="matrix(0.976563, 0, 0, 0.976563, 0, 0)"/>
  <g style="" transform="matrix(0.976563, 0, 0, 0.976563, 0, 0)"/>
  <g style="" transform="matrix(0.976563, 0, 0, 0.976563, 0, 0)"/>
  <g style="" transform="matrix(0.976563, 0, 0, 0.976563, 0, 0)"/>
  <g style="" transform="matrix(0.976563, 0, 0, 0.976563, 0, 0)"/>
  <g style="" transform="matrix(0.976563, 0, 0, 0.976563, 0, 0)"/>
</svg>